
<svg xmlns="http://www.w3.org/2000/svg" version="1.1" xmlns:xlink="http://www.w3.org/1999/xlink" preserveAspectRatio="none" x="0px" y="0px" width="256px" height="256px" viewBox="0 0 256 256">
<defs/>

<g id="Layer_1">
<g>
<g>
<g>
<path fill="#000000" stroke="none" d="
M 0 256
L 256 256 256 0 0 0 0 256 Z"/>
</g>
</g>

<g>
<path stroke="#FFFFFF" stroke-width="4" stroke-linejoin="miter" stroke-linecap="round" stroke-miterlimit="3" fill="none" d="
M 0 0
L 256 0 256 256 0 256 0 0 Z"/>
</g>
</g>

<g>
<g>
<g>
<path fill="#FFFFFF" stroke="none" d="
M 82 194.85
L 75 194.85 75 231.05 82 231.05 82 194.85
M 49.3 194.85
L 25 194.85 25 231.05 32 231.05 32 216.05 46.4 216.05 46.4 210.35 32 210.35 32 201 49.3 201 49.3 194.85
M 75 142.95
L 75 179.15 82 179.15 82 142.95 75 142.95
M 55.4 142.95
L 48.45 142.95 48.45 157.6 32 157.6 32 142.95 25 142.95 25 179.15 32 179.15 32 163.7 48.45 163.7 48.45 179.15 55.4 179.15 55.4 142.95 Z"/>
</g>
</g>
</g>
</g>
</svg>
